<svg width="24" height="24" viewBox="0 0 24 24" fill="none" xmlns="http://www.w3.org/2000/svg" xmlns:xlink="http://www.w3.org/1999/xlink" class=""><rect id="r4" width="24" height="24" x="0" y="0" rx="128" fill="url(#r5)" stroke="#FFFFFF" stroke-width="0" stroke-opacity="100%" paint-order="stroke"></rect><clipPath id="clip"><use xlink:href="#r4"></use></clipPath><defs><linearGradient id="r5" gradientUnits="userSpaceOnUse" gradientTransform="rotate(45)" style="transform-origin: center center;"><stop stop-color="#91EAE4"></stop><stop offset="1" stop-color="#7F7FD5"></stop></linearGradient><radialGradient id="r6" cx="0" cy="0" r="1" gradientUnits="userSpaceOnUse" gradientTransform="translate(256) rotate(90) scale(512)"><stop stop-color="white"></stop><stop offset="1" stop-color="white" stop-opacity="0"></stop></radialGradient></defs><svg viewBox="0 0 16 16" fill="none" xmlns="http://www.w3.org/2000/svg" width="352" height="352" x="80" y="80" alignment-baseline="middle" style="color: rgb(255, 255, 255);"><path d="M5.75 9.5s.656 1.25 2.25 1.25c1.594 0 2.25-1.25 2.25-1.25m4-1.5a6.25 6.25 0 1 1-12.5 0 6.25 6.25 0 0 1 12.5 0Z" stroke="currentColor" stroke-width="1.5" stroke-linecap="round" stroke-linejoin="round"></path><path d="M6.5 6a.5.5 0 1 1-1 0 .5.5 0 0 1 1 0ZM10.5 6a.5.5 0 1 1-1 0 .5.5 0 0 1 1 0Z" stroke="currentColor" stroke-linecap="round" stroke-linejoin="round"></path></svg></svg>